<svg width="1440" height="268" viewBox="0 0 1440 268" fill="none" xmlns="http://www.w3.org/2000/svg">
<line x1="-397" y1="7.91119" x2="1836.77" y2="7.91119" stroke="#9CA3AF" stroke-width="1.43836" stroke-dasharray="4.32 4.32"/>
<line x1="-397" y1="117.226" x2="1836.77" y2="117.226" stroke="#9CA3AF" stroke-width="1.43836" stroke-dasharray="4.32 4.32"/>
<line x1="-397" y1="226.541" x2="1836.77" y2="226.541" stroke="#9CA3AF" stroke-width="1.43836" stroke-dasharray="4.32 4.32"/>
<path d="M-186.554 71.315L-389.43 58.9002V306.37H1827.36V28.2768L1632.73 53.9342L1428.21 63.8661L1222.03 79.5916L1024.11 58.9002L819.58 10.0684L616.704 38.2087L415.477 10.0684H214.25L14.6732 22.4832L-186.554 71.315Z" fill="url(#paint0_linear_1175_1915)"/>
<path d="M-389.43 58.8456L-186.554 71.2467L14.6732 22.4694L214.25 10.0684H415.477L616.704 38.1773L819.58 10.0684L1024.11 58.8456L1222.03 79.514L1428.21 63.8061L1632.73 53.8852L1827.36 28.2565" stroke="#3B82F6" stroke-width="2.87671"/>
<path d="M-181.296 144.914L-389.43 126.313V306.37H1827.36V10.2433L1628.34 2.87695L1424.31 115.897L1224.44 125.569L1026.21 150.866L819.73 153.842L619.855 174.676L415.025 166.491L211.846 144.914L8.66794 137.474L-181.296 144.914Z" fill="url(#paint1_linear_1175_1915)" fill-opacity="0.3"/>
<path d="M-389.43 126.313L-181.296 144.914L8.66795 137.474L211.846 144.914L415.025 166.491L619.855 174.676L819.73 153.842L1026.21 150.866L1224.44 125.569L1424.31 115.897L1628.34 2.87695L1827.36 10.2433" stroke="#7CD859" stroke-width="2.87671"/>
<path d="M1826.64 229.776V305.651H-388.711V11.3492L-181.587 103.274L-181.297 103.402L-181.007 103.275L8.78922 19.9948L211.672 37.3114L414.747 122.515L415.024 122.631L415.301 122.516L619.8 37.4062L819.366 154.463L819.471 154.524L819.591 154.548L1026.07 195.326L1026.29 195.368L1026.49 195.285L1224.55 113.579L1424.24 131.83L1424.38 131.842L1424.51 131.804L1628.18 72.776L1826.64 229.776Z" fill="url(#paint2_linear_1175_1915)" fill-opacity="0.3" stroke="black" stroke-width="1.43836"/>
<path d="M-389.43 10.2432L-181.296 102.616L8.66795 19.2626L211.846 36.6045L415.025 121.852L619.855 36.6045L819.73 153.842L1026.21 194.62L1224.44 112.846L1424.31 131.113L1628.34 71.9821L1827.36 229.428" stroke="#22D3EE" stroke-width="2.87671"/>
<defs>
<linearGradient id="paint0_linear_1175_1915" x1="718.967" y1="10.0684" x2="718.967" y2="306.37" gradientUnits="userSpaceOnUse">
<stop stop-color="#309DA3"/>
<stop offset="1" stop-color="#309DA3" stop-opacity="0"/>
</linearGradient>
<linearGradient id="paint1_linear_1175_1915" x1="718.967" y1="2.87695" x2="718.967" y2="306.37" gradientUnits="userSpaceOnUse">
<stop stop-color="#75BF15"/>
<stop offset="1" stop-color="#75BF15" stop-opacity="0.4"/>
</linearGradient>
<linearGradient id="paint2_linear_1175_1915" x1="718.967" y1="10.2432" x2="718.967" y2="306.37" gradientUnits="userSpaceOnUse">
<stop stop-color="#10B981"/>
<stop offset="1" stop-color="#10B981" stop-opacity="0.6"/>
</linearGradient>
</defs>
</svg>
